<svg xmlns="http://www.w3.org/2000/svg" width="28" height="28" viewBox="0 0 28 28">
  <g>
    <g>
      <circle cx="14" cy="14" r="10.5" style="fill: none;stroke-miterlimit: 10;stroke-width: 0.7000000000000001px" stroke="#4d4d4d"/>
      <path d="M8.07,14.46c1.18-1.77,5.62-1.53,6.39,0,.91,1.82-1.19,1.26-1.83,3.65-.82,3.08.6,4.56,0,4.56-2.74,0-2.44-2.56-3.65-4.56C8,16.41,7.3,15.6,8.07,14.46Z" style="fill: none;stroke-miterlimit: 10;stroke-width: 0.7000000000000001px" stroke="#4d4d4d"/>
      <path d="M24.5,14.46c-.33,0-6.39-2.09-6.39,0,0,.91-1.25,1.45-.91,2.74.41,1.62,2.73,1.75,2.73,2.73,0,1.25-2.07,2.5,0,2.74" style="fill: none;stroke-miterlimit: 10;stroke-width: 0.7000000000000001px" stroke="#4d4d4d"/>
      <path d="M17.35,4.05c-.44,1.84.6,3,1.67,4,1.28,1.27.79,3.07,1.83,2.73,1.65-.53,2.72-1.11,2.74-.91" style="fill: none;stroke-miterlimit: 10;stroke-width: 0.7000000000000001px" stroke="#4d4d4d"/>
      <path d="M4.41,9.89a4.29,4.29,0,0,0,5.48,0C11,8.81,14.05,8.17,13.54,7.15,12.63,5.33,9.32,5,9.89,4.41" style="fill: none;stroke-miterlimit: 10;stroke-width: 0.7000000000000001px" stroke="#4d4d4d"/>
    </g>
    <rect width="28" height="28" style="fill: none"/>
  </g>
</svg>
