<svg xmlns="http://www.w3.org/2000/svg" viewBox="0 0 568.81 136.08"><defs><style>.cls-1{fill:#fff;}</style></defs><g id="Capa_2" data-name="Capa 2"><g id="Layer_1" data-name="Layer 1"><path class="cls-1" d="M1.47,1.26H15.68a19.63,19.63,0,0,1,10,2.45,12.85,12.85,0,0,1,5.84,6.72,31.23,31.23,0,0,1,1.61,10.64V31.64a40.28,40.28,0,0,1-.38,5.92,19.82,19.82,0,0,1-1.23,4.51,13.44,13.44,0,0,1-5.81,6.65A18.75,18.75,0,0,1,16,51.1H1.47a1.79,1.79,0,0,1-1.16-.28A1.5,1.5,0,0,1,0,49.7v-47A1.5,1.5,0,0,1,.31,1.54,1.79,1.79,0,0,1,1.47,1.26ZM5.6,6V46.34h9.94q6.09,0,9-3.53t2.87-11V20.58q0-7.48-2.87-11T15.54,6Z"/><path class="cls-1" d="M44.8,7.91a3.7,3.7,0,0,1-2.55-.84,2.9,2.9,0,0,1-1-2.31V3.64a2.83,2.83,0,0,1,1-2.24A3.7,3.7,0,0,1,44.8.56a4,4,0,0,1,2.66.84,2.82,2.82,0,0,1,1,2.24V4.76a2.89,2.89,0,0,1-1,2.31A4,4,0,0,1,44.8,7.91Zm2.73,7.91V49.7a1.5,1.5,0,0,1-.32,1.12,1.74,1.74,0,0,1-1.15.28H43.47a1.77,1.77,0,0,1-1.16-.28A1.5,1.5,0,0,1,42,49.7V15.82a1.5,1.5,0,0,1,.31-1.12,1.77,1.77,0,0,1,1.16-.28h2.59a1.74,1.74,0,0,1,1.15.28A1.5,1.5,0,0,1,47.53,15.82Z"/><path class="cls-1" d="M69,52.08q-7.63,0-11.27-3.43A8.21,8.21,0,0,1,55,42.49a1.39,1.39,0,0,1,.31-1.05,1.91,1.91,0,0,1,1.23-.28h2a2.22,2.22,0,0,1,1.15.21,1.47,1.47,0,0,1,.46,1,6.05,6.05,0,0,0,2.69,4.06,11.64,11.64,0,0,0,6,1.26q8,0,8-5.67a5.69,5.69,0,0,0-1.47-4.16,10.59,10.59,0,0,0-4.9-2.42l-6.23-1.61q-8.4-2.24-8.4-9.52v-.35a9.31,9.31,0,0,1,3.53-7.66q3.54-2.84,9.56-2.84,7.35,0,10.64,3.5a8.13,8.13,0,0,1,2.52,5.95,1.39,1.39,0,0,1-.32,1.05,1.88,1.88,0,0,1-1.22.28h-2A2.44,2.44,0,0,1,77.31,24c-.21-.14-.33-.47-.38-1q-.84-5.25-8.47-5.25A8.5,8.5,0,0,0,63,19.32a5.25,5.25,0,0,0-1.92,4.34,4.4,4.4,0,0,0,1.5,3.57,15.28,15.28,0,0,0,5.64,2.31L74,31q8.4,2.1,8.4,10.22v.35Q82.39,52.08,69,52.08Z"/><path class="cls-1" d="M103.74,1.26h2.52a1.21,1.21,0,0,1,.94.28,1.75,1.75,0,0,1,.25,1.12V4.55a1.75,1.75,0,0,1-.25,1.12,1.21,1.21,0,0,1-.94.28h-2c-2.1,0-3.58.43-4.45,1.3s-1.29,2.29-1.29,4.3v2.87h6.37a1.21,1.21,0,0,1,.94.28,1.75,1.75,0,0,1,.25,1.12v1.82a1.75,1.75,0,0,1-.25,1.12,1.21,1.21,0,0,1-.94.28H98.49V49.7a1.5,1.5,0,0,1-.32,1.12A1.74,1.74,0,0,1,97,51.1H94.43a1.77,1.77,0,0,1-1.16-.28A1.5,1.5,0,0,1,93,49.7V19H88.48a1.24,1.24,0,0,1-1-.28,1.83,1.83,0,0,1-.24-1.12V15.82a1.83,1.83,0,0,1,.24-1.12,1.24,1.24,0,0,1,1-.28H93V11.27a9.61,9.61,0,0,1,2.8-7.38Q98.55,1.27,103.74,1.26Z"/><path class="cls-1" d="M118.16,15.82v5.32a11.29,11.29,0,0,1,4-4.86,10.44,10.44,0,0,1,6.06-1.86h.91c.51,0,.84.09,1,.28a2,2,0,0,1,.21,1.12v2.52a2,2,0,0,1-.21,1.12c-.14.19-.47.28-1,.28h-1.82a7.66,7.66,0,0,0-6.58,3.47,14.55,14.55,0,0,0-2.45,8.64V49.7a1.5,1.5,0,0,1-.32,1.12,1.74,1.74,0,0,1-1.15.28h-2.59a1.77,1.77,0,0,1-1.16-.28,1.5,1.5,0,0,1-.31-1.12V15.82a1.5,1.5,0,0,1,.31-1.12,1.77,1.77,0,0,1,1.16-.28h2.45a1.74,1.74,0,0,1,1.15.28A1.5,1.5,0,0,1,118.16,15.82Z"/><path class="cls-1" d="M157.64,49.7V47.32q-3.72,4.76-10.43,4.76c-3.78,0-6.68-1-8.68-3.15s-3-5.16-3-9.17V15.82a1.5,1.5,0,0,1,.31-1.12,1.77,1.77,0,0,1,1.16-.28h2.59a1.74,1.74,0,0,1,1.15.28,1.5,1.5,0,0,1,.32,1.12V38.57q0,4.49,1.85,6.55c1.24,1.37,3.16,2.06,5.78,2.06a8.19,8.19,0,0,0,6.4-2.69,10.36,10.36,0,0,0,2.42-7.18V15.82a1.5,1.5,0,0,1,.31-1.12,1.77,1.77,0,0,1,1.16-.28h2.59a1.74,1.74,0,0,1,1.15.28,1.5,1.5,0,0,1,.32,1.12V49.7a1.5,1.5,0,0,1-.32,1.12,1.74,1.74,0,0,1-1.15.28h-2.45a1.77,1.77,0,0,1-1.16-.28A1.5,1.5,0,0,1,157.64,49.7Z"/><path class="cls-1" d="M188,51.1h-3.78q-4.69,0-6.9-2.24t-2.2-7.07V19h-4.55a1.22,1.22,0,0,1-1-.28,1.83,1.83,0,0,1-.24-1.12V15.82a1.83,1.83,0,0,1,.24-1.12,1.22,1.22,0,0,1,1-.28h4.55V5.53a1.5,1.5,0,0,1,.31-1.12,1.77,1.77,0,0,1,1.16-.28h2.59a1.74,1.74,0,0,1,1.15.28,1.5,1.5,0,0,1,.32,1.12v8.89h7.21c.51,0,.84.09,1,.28a2,2,0,0,1,.21,1.12v1.82a2,2,0,0,1-.21,1.12c-.14.19-.47.28-1,.28H180.6V40.88a6.84,6.84,0,0,0,.94,4.06,3.65,3.65,0,0,0,3.12,1.26H188c.51,0,.84.09,1,.28a2,2,0,0,1,.21,1.12v2.1a2,2,0,0,1-.21,1.12C188.79,51,188.46,51.1,188,51.1Z"/><path class="cls-1" d="M209.51,28.7c.88,0,2.06.05,3.53.14s2.93.23,4.38.42V25.13q0-3.86-1.79-5.56t-5.84-1.72a10.91,10.91,0,0,0-5,.94,6,6,0,0,0-2.66,3.26,4.14,4.14,0,0,1-.56,1,1.66,1.66,0,0,1-1.05.21H198a1.91,1.91,0,0,1-1.23-.28,1.39,1.39,0,0,1-.31-1.05,4.93,4.93,0,0,1,.56-2.1,9.48,9.48,0,0,1,1.4-2.17,11.23,11.23,0,0,1,4.55-3.15,19.25,19.25,0,0,1,6.86-1.05q7,0,10.08,2.7T223,25V39.34q0,6.3-3.19,9.38t-10,3.08h-1.05q-7.08,0-10.5-2.66c-2.29-1.77-3.43-4.6-3.43-8.47q0-6.22,3.6-9.1T209.51,28.7Zm.42,4.62c-3.6,0-6.08.56-7.46,1.68s-2.06,3-2.06,5.6c0,2.29.65,3.94,2,5s3.54,1.54,6.72,1.54h.63q4,0,5.88-2t1.82-6.41V34q-2.1-.29-4.17-.45C211.87,33.38,210.77,33.32,209.93,33.32Z"/><path class="cls-1" d="M259.49,28.7c.88,0,2.06.05,3.53.14s2.93.23,4.38.42V25.13q0-3.86-1.79-5.56t-5.84-1.72a10.91,10.91,0,0,0-5,.94,6,6,0,0,0-2.66,3.26,4.14,4.14,0,0,1-.56,1,1.66,1.66,0,0,1-1,.21h-2.52a1.91,1.91,0,0,1-1.23-.28,1.39,1.39,0,0,1-.31-1.05,4.93,4.93,0,0,1,.56-2.1,9.48,9.48,0,0,1,1.4-2.17,11.23,11.23,0,0,1,4.55-3.15,19.25,19.25,0,0,1,6.86-1.05q7,0,10.08,2.7T272.93,25V39.34q0,6.3-3.19,9.38t-10,3.08h-1.05q-7.08,0-10.5-2.66c-2.29-1.77-3.43-4.6-3.43-8.47q0-6.22,3.6-9.1T259.49,28.7Zm.42,4.62c-3.6,0-6.08.56-7.46,1.68s-2.06,3-2.06,5.6c0,2.29.65,3.94,2,5s3.54,1.54,6.72,1.54h.63q4.05,0,5.88-2t1.82-6.41V34q-2.1-.29-4.17-.45C261.85,33.38,260.75,33.32,259.91,33.32Z"/><path class="cls-1" d="M302,2.66v47a1.5,1.5,0,0,1-.32,1.12,1.74,1.74,0,0,1-1.15.28h-2.59a1.75,1.75,0,0,1-1.16-.28,1.5,1.5,0,0,1-.31-1.12v-47a1.5,1.5,0,0,1,.31-1.12,1.75,1.75,0,0,1,1.16-.28h2.59a1.74,1.74,0,0,1,1.15.28A1.5,1.5,0,0,1,302,2.66Z"/><path class="cls-1" d="M325.35,52.08q-7.2,0-11.16-4t-4-11.27V29.4q0-7.56,4-11.76t11.16-4.2q7.22,0,11.17,4t4,11.27v7.42q0,7.56-4,11.76T325.35,52.08Zm0-4.76q9.6,0,9.59-11.62V29.82q0-11.62-9.59-11.62t-9.58,11.62V35.7Q315.77,47.33,325.35,47.32Z"/><path class="cls-1" d="M360.56,52.08q-7.62,0-11.27-3.43a8.21,8.21,0,0,1-2.73-6.16,1.39,1.39,0,0,1,.32-1.05,1.89,1.89,0,0,1,1.22-.28h2a2.26,2.26,0,0,1,1.16.21,1.47,1.47,0,0,1,.45,1,6,6,0,0,0,2.7,4.06,11.61,11.61,0,0,0,6,1.26q8,0,8-5.67a5.73,5.73,0,0,0-1.46-4.16A10.68,10.68,0,0,0,362,35.42l-6.23-1.61q-8.4-2.24-8.4-9.52v-.35a9.29,9.29,0,0,1,3.54-7.66q3.54-2.84,9.55-2.84,7.36,0,10.64,3.5a8.13,8.13,0,0,1,2.52,5.95,1.39,1.39,0,0,1-.31,1.05,1.91,1.91,0,0,1-1.23.28h-2a2.44,2.44,0,0,1-1.23-.21,1.3,1.3,0,0,1-.39-1q-.84-5.25-8.46-5.25a8.46,8.46,0,0,0-5.43,1.54,5.25,5.25,0,0,0-1.93,4.34,4.41,4.41,0,0,0,1.51,3.57,15.13,15.13,0,0,0,5.63,2.31L365.53,31q8.4,2.1,8.41,10.22v.35Q373.94,52.08,360.56,52.08Z"/><path class="cls-1" d="M395.63,37.52V2.66A1.5,1.5,0,0,1,396,1.54a1.74,1.74,0,0,1,1.15-.28h2.59a1.77,1.77,0,0,1,1.16.28,1.5,1.5,0,0,1,.31,1.12V17.78q3.51-4.34,10.36-4.34t10.57,4q3.72,3.95,3.71,11.3v7.77q0,7.43-3.95,11.52t-11.1,4.09c-4.8,0-8.53-1.27-11.16-3.81S395.63,42.14,395.63,37.52Zm5.53-7.7V35.7q0,11.63,9.59,11.62t9.52-11.62V29.82q0-11.62-9.59-11.62-4.68,0-7.1,3T401.16,29.82Z"/><path class="cls-1" d="M460.38,34.44H438.19v1.33q0,11.55,9.38,11.55,6,0,7.91-4.55a2.3,2.3,0,0,1,.63-1,1.93,1.93,0,0,1,1-.18h2.52a2.38,2.38,0,0,1,1.26.21c.19.14.28.44.28.91a5.9,5.9,0,0,1-.77,2.52,12.51,12.51,0,0,1-1.75,2.66A11.71,11.71,0,0,1,453.87,51a18.47,18.47,0,0,1-6.51,1.12q-7.07,0-10.88-4.13t-3.82-11.76V30.94q0-8.4,3.82-13t10.95-4.55q14.42,0,14.42,16V33a1.5,1.5,0,0,1-.31,1.12A1.77,1.77,0,0,1,460.38,34.44ZM447.43,17.78q-9.17,0-9.24,12.11h18.06q0-6.23-2.17-9.17C452.63,18.76,450.42,17.78,447.43,17.78Z"/><path class="cls-1" d="M469.27,37.52V2.66a1.5,1.5,0,0,1,.32-1.12,1.74,1.74,0,0,1,1.15-.28h2.59a1.77,1.77,0,0,1,1.16.28,1.5,1.5,0,0,1,.31,1.12V17.78q3.49-4.34,10.36-4.34t10.57,4q3.7,3.95,3.71,11.3v7.77q0,7.43-3.95,11.52t-11.1,4.09q-7.22,0-11.16-3.81T469.27,37.52Zm5.53-7.7V35.7q0,11.63,9.59,11.62t9.52-11.62V29.82q0-11.62-9.59-11.62c-3.13,0-5.49,1-7.1,3S474.8,26,474.8,29.82Z"/><path class="cls-1" d="M534,34.44H511.83v1.33q0,11.55,9.38,11.55,6,0,7.91-4.55a2.21,2.21,0,0,1,.63-1,1.93,1.93,0,0,1,1-.18h2.52a2.43,2.43,0,0,1,1.26.21c.19.14.28.44.28.91a6,6,0,0,1-.77,2.52,12.51,12.51,0,0,1-1.75,2.66A11.71,11.71,0,0,1,527.51,51,18.47,18.47,0,0,1,521,52.08q-7.07,0-10.89-4.13T506.3,36.19V30.94q0-8.4,3.81-13t11-4.55q14.41,0,14.42,16V33a1.5,1.5,0,0,1-.31,1.12A1.77,1.77,0,0,1,534,34.44ZM521.07,17.78q-9.17,0-9.24,12.11h18.06q0-6.23-2.17-9.17C526.27,18.76,524.06,17.78,521.07,17.78ZM524.64,0h3.08c.61,0,.91.19.91.56a1.68,1.68,0,0,1-.28.77l-5,6.93a5.24,5.24,0,0,1-1.12,1.33,2.45,2.45,0,0,1-1.19.21h-2.38c-.61,0-.91-.18-.91-.56a1.68,1.68,0,0,1,.28-.77l4.27-6.93a4.1,4.1,0,0,1,1-1.29A2.41,2.41,0,0,1,524.64,0Z"/><path class="cls-1" d="M555.44,52.08q-7.63,0-11.27-3.43a8.21,8.21,0,0,1-2.73-6.16,1.39,1.39,0,0,1,.31-1.05,1.91,1.91,0,0,1,1.23-.28h2a2.22,2.22,0,0,1,1.15.21,1.51,1.51,0,0,1,.46,1,6.05,6.05,0,0,0,2.69,4.06,11.64,11.64,0,0,0,6,1.26q8,0,8-5.67a5.69,5.69,0,0,0-1.47-4.16,10.64,10.64,0,0,0-4.9-2.42l-6.23-1.61q-8.4-2.24-8.4-9.52v-.35a9.31,9.31,0,0,1,3.53-7.66q3.54-2.84,9.56-2.84,7.35,0,10.64,3.5a8.13,8.13,0,0,1,2.52,5.95,1.39,1.39,0,0,1-.32,1.05,1.88,1.88,0,0,1-1.22.28h-2a2.44,2.44,0,0,1-1.23-.21c-.21-.14-.33-.47-.38-1q-.84-5.25-8.47-5.25a8.5,8.5,0,0,0-5.43,1.54,5.25,5.25,0,0,0-1.92,4.34,4.4,4.4,0,0,0,1.5,3.57,15.28,15.28,0,0,0,5.64,2.31L560.41,31q8.4,2.1,8.4,10.22v.35Q568.81,52.08,555.44,52.08Z"/><path class="cls-1" d="M121.27,135.1h-3.78c-3.13,0-5.42-.75-6.89-2.24s-2.21-3.85-2.21-7.07V103h-4.55a1.2,1.2,0,0,1-.94-.28,1.75,1.75,0,0,1-.25-1.12V99.82a1.75,1.75,0,0,1,.25-1.12,1.2,1.2,0,0,1,.94-.28h4.55V89.53a1.5,1.5,0,0,1,.32-1.12,1.74,1.74,0,0,1,1.15-.28h2.59a1.77,1.77,0,0,1,1.16.28,1.5,1.5,0,0,1,.31,1.12v8.89h7.21c.51,0,.84.09,1,.28a2,2,0,0,1,.21,1.12v1.82a2,2,0,0,1-.21,1.12c-.14.19-.47.28-1,.28h-7.21v21.84a6.84,6.84,0,0,0,1,4.06A3.63,3.63,0,0,0,118,130.2h3.29c.51,0,.84.09,1,.28a2,2,0,0,1,.21,1.12v2.1a2,2,0,0,1-.21,1.12C122.11,135,121.78,135.1,121.27,135.1Z"/><path class="cls-1" d="M142.83,112.7c.89,0,2.07,0,3.54.14s2.92.23,4.37.42v-4.13q0-3.85-1.78-5.56t-5.85-1.72a11,11,0,0,0-5,.94,6.05,6.05,0,0,0-2.66,3.26,3.81,3.81,0,0,1-.56,1,1.66,1.66,0,0,1-1,.21h-2.52a1.88,1.88,0,0,1-1.22-.28,1.39,1.39,0,0,1-.32-1,5.08,5.08,0,0,1,.56-2.1,9.48,9.48,0,0,1,1.4-2.17,11.23,11.23,0,0,1,4.55-3.15,19.29,19.29,0,0,1,6.86-1q7,0,10.08,2.7t3.08,8.85v14.35q0,6.3-3.18,9.38T143,135.8h-1q-7.06,0-10.5-2.66c-2.29-1.77-3.43-4.6-3.43-8.47q0-6.23,3.61-9.1T142.83,112.7Zm.42,4.62c-3.59,0-6.08.56-7.45,1.68s-2.07,3-2.07,5.6c0,2.29.65,3.94,2,5s3.55,1.54,6.72,1.54H143q4.07,0,5.88-2t1.82-6.41V118c-1.4-.19-2.79-.34-4.16-.45S144.09,117.32,143.25,117.32Z"/><path class="cls-1" d="M170.76,86.66v47a1.5,1.5,0,0,1-.31,1.12,1.77,1.77,0,0,1-1.16.28H166.7a1.74,1.74,0,0,1-1.15-.28,1.5,1.5,0,0,1-.32-1.12v-47a1.5,1.5,0,0,1,.32-1.12,1.74,1.74,0,0,1,1.15-.28h2.59a1.77,1.77,0,0,1,1.16.28A1.5,1.5,0,0,1,170.76,86.66Z"/><path class="cls-1" d="M208.07,131.32q7.14,0,8.19-6a1.31,1.31,0,0,1,.38-.94,2.09,2.09,0,0,1,1.23-.25h2.31a1.94,1.94,0,0,1,1.22.28,1.39,1.39,0,0,1,.32,1,10.46,10.46,0,0,1-2,5.81q-3.23,4.83-11.76,4.83-7,0-10.68-3.88t-3.67-11.38v-6.93q0-8.11,3.67-12.28t10.68-4.17q7.63,0,11.06,3.85a10,10,0,0,1,2.66,6.79,1.37,1.37,0,0,1-.32,1,1.88,1.88,0,0,1-1.22.28h-2.24a2.18,2.18,0,0,1-1.23-.24,1.36,1.36,0,0,1-.38-1,6.27,6.27,0,0,0-2.45-4.51,9.12,9.12,0,0,0-5.6-1.58q-4.76,0-6.93,2.8t-2.17,8.89v5.88q0,6,2.17,8.82T208.07,131.32Z"/><path class="cls-1" d="M243.35,136.08q-7.22,0-11.17-4t-4-11.27V113.4q0-7.56,4-11.76t11.17-4.2c4.8,0,8.53,1.33,11.16,4s4,6.42,4,11.27v7.42q0,7.56-4,11.76C251.88,134.68,248.15,136.08,243.35,136.08Zm0-4.76q9.59,0,9.59-11.62v-5.88q0-11.62-9.59-11.62t-9.59,11.62v5.88Q233.76,131.32,243.35,131.32Z"/><path class="cls-1" d="M304.46,97.44q5.6,0,8.61,3.15t3,9.17V133.7a1.5,1.5,0,0,1-.32,1.12,1.74,1.74,0,0,1-1.15.28H312a1.77,1.77,0,0,1-1.16-.28,1.5,1.5,0,0,1-.31-1.12V111q0-4.49-1.82-6.54c-1.21-1.38-3.13-2.07-5.74-2.07a8.26,8.26,0,0,0-6.41,2.66,10.32,10.32,0,0,0-2.41,7.21V133.7a1.5,1.5,0,0,1-.32,1.12,1.74,1.74,0,0,1-1.15.28h-2.59a1.77,1.77,0,0,1-1.16-.28,1.5,1.5,0,0,1-.31-1.12V111q0-4.49-1.82-6.54t-5.74-2.07a8.26,8.26,0,0,0-6.41,2.66,10.32,10.32,0,0,0-2.41,7.21V133.7a1.5,1.5,0,0,1-.32,1.12,1.74,1.74,0,0,1-1.15.28H268.2a1.77,1.77,0,0,1-1.16-.28,1.5,1.5,0,0,1-.31-1.12V99.82A1.5,1.5,0,0,1,267,98.7a1.77,1.77,0,0,1,1.16-.28h2.45a1.74,1.74,0,0,1,1.15.28,1.5,1.5,0,0,1,.32,1.12v2.45q3.5-4.83,10.43-4.83,7.62,0,10.36,5.74a13.15,13.15,0,0,1,4.9-4.41A15,15,0,0,1,304.46,97.44Z"/><path class="cls-1" d="M339.11,136.08q-7.22,0-11.17-4T324,120.82V113.4q0-7.56,3.95-11.76t11.17-4.2c4.8,0,8.53,1.33,11.16,4s4,6.42,4,11.27v7.42q0,7.56-4,11.76C347.64,134.68,343.91,136.08,339.11,136.08Zm0-4.76q9.58,0,9.59-11.62v-5.88q0-11.62-9.59-11.62t-9.59,11.62v5.88Q329.52,131.32,339.11,131.32Z"/><path class="cls-1" d="M388.88,136.08q-7.63,0-11.27-3.43a8.21,8.21,0,0,1-2.73-6.16,1.39,1.39,0,0,1,.31-1,1.91,1.91,0,0,1,1.23-.28h2a2.22,2.22,0,0,1,1.15.21,1.51,1.51,0,0,1,.46,1,6.05,6.05,0,0,0,2.69,4.06,11.61,11.61,0,0,0,6,1.26q8,0,8-5.67a5.69,5.69,0,0,0-1.47-4.16,10.64,10.64,0,0,0-4.9-2.42l-6.23-1.61q-8.4-2.24-8.4-9.52v-.35a9.31,9.31,0,0,1,3.53-7.66q3.54-2.84,9.56-2.84,7.35,0,10.64,3.5a8.13,8.13,0,0,1,2.52,6,1.39,1.39,0,0,1-.32,1,1.89,1.89,0,0,1-1.22.28h-2a2.44,2.44,0,0,1-1.23-.21,1.27,1.27,0,0,1-.38-1q-.84-5.25-8.47-5.25a8.48,8.48,0,0,0-5.43,1.54,5.25,5.25,0,0,0-1.92,4.34,4.4,4.4,0,0,0,1.5,3.57,15.2,15.2,0,0,0,5.64,2.31l5.74,1.47q8.4,2.1,8.4,10.22v.35Q402.25,136.08,388.88,136.08Z"/><path class="cls-1" d="M423.81,136.08q-7.21,0-11.17-4t-3.95-11.27V113.4q0-7.56,3.95-11.76t11.17-4.2c4.8,0,8.53,1.33,11.16,4s4,6.42,4,11.27v7.42q0,7.56-4,11.76C432.34,134.68,428.61,136.08,423.81,136.08Zm0-4.76q9.58,0,9.59-11.62v-5.88q0-11.62-9.59-11.62t-9.59,11.62v5.88Q414.22,131.32,423.81,131.32Z"/><path class="cls-1" d="M463.36,97.44q5.81,0,8.92,3.15t3.12,9.17V133.7a1.5,1.5,0,0,1-.32,1.12,1.74,1.74,0,0,1-1.15.28h-2.59a1.77,1.77,0,0,1-1.16-.28,1.5,1.5,0,0,1-.31-1.12V111q0-4.49-1.93-6.54t-6.05-2.07a8.66,8.66,0,0,0-6.65,2.7,10.05,10.05,0,0,0-2.52,7.17V133.7a1.5,1.5,0,0,1-.32,1.12,1.74,1.74,0,0,1-1.15.28h-2.59a1.77,1.77,0,0,1-1.16-.28,1.5,1.5,0,0,1-.31-1.12V99.82a1.5,1.5,0,0,1,.31-1.12,1.77,1.77,0,0,1,1.16-.28h2.45a1.74,1.74,0,0,1,1.15.28,1.5,1.5,0,0,1,.32,1.12v2.45Q456.21,97.44,463.36,97.44Z"/></g></g></svg>