<svg xmlns="http://www.w3.org/2000/svg" viewBox="0 0 466.57 25.3"><defs><style>.cls-1{fill:#fff;}</style></defs><g id="Capa_2" data-name="Capa 2"><g id="Layer_1" data-name="Layer 1"><path class="cls-1" d="M.71.61H7.62A9.54,9.54,0,0,1,12.46,1.8,6.27,6.27,0,0,1,15.3,5.07a15.11,15.11,0,0,1,.78,5.16v5.14a19.71,19.71,0,0,1-.18,2.87,9.71,9.71,0,0,1-.6,2.19,6.53,6.53,0,0,1-2.82,3.23,9.14,9.14,0,0,1-4.69,1.16H.71a.8.8,0,0,1-.56-.14A.73.73,0,0,1,0,24.14V1.29A.73.73,0,0,1,.15.75.86.86,0,0,1,.71.61Zm2,2.31V22.51H7.55a5.26,5.26,0,0,0,4.35-1.72c.93-1.14,1.39-2.93,1.39-5.35V10c0-2.43-.46-4.21-1.39-5.36A5.29,5.29,0,0,0,7.55,2.92Z"/><path class="cls-1" d="M21.76,3.84a1.75,1.75,0,0,1-1.24-.41,1.4,1.4,0,0,1-.46-1.12V1.77A1.36,1.36,0,0,1,20.52.68,1.8,1.8,0,0,1,21.76.27a1.94,1.94,0,0,1,1.29.41,1.35,1.35,0,0,1,.48,1.09v.54a1.38,1.38,0,0,1-.48,1.12A1.89,1.89,0,0,1,21.76,3.84Zm1.33,3.84V24.14a.72.72,0,0,1-.16.54.8.8,0,0,1-.56.14H21.11a.8.8,0,0,1-.56-.14.73.73,0,0,1-.15-.54V7.68a.73.73,0,0,1,.15-.54A.86.86,0,0,1,21.11,7h1.26a.86.86,0,0,1,.56.14A.72.72,0,0,1,23.09,7.68Z"/><path class="cls-1" d="M33.52,25.3q-3.71,0-5.47-1.67a4,4,0,0,1-1.33-3,.64.64,0,0,1,.16-.51.92.92,0,0,1,.59-.14h1a1.18,1.18,0,0,1,.56.1.76.76,0,0,1,.22.48,2.91,2.91,0,0,0,1.31,2,5.63,5.63,0,0,0,2.91.61c2.58,0,3.87-.91,3.87-2.75a2.79,2.79,0,0,0-.71-2,5.22,5.22,0,0,0-2.38-1.18l-3-.78q-4.08-1.08-4.08-4.62v-.17a4.48,4.48,0,0,1,1.72-3.72,7.19,7.19,0,0,1,4.64-1.38c2.38,0,4.1.56,5.17,1.7a4,4,0,0,1,1.22,2.89.67.67,0,0,1-.15.51,1,1,0,0,1-.6.13h-1a1.17,1.17,0,0,1-.6-.1.61.61,0,0,1-.18-.47Q37,8.64,33.25,8.64a4.16,4.16,0,0,0-2.63.74,2.54,2.54,0,0,0-.94,2.11,2.14,2.14,0,0,0,.73,1.74,7.53,7.53,0,0,0,2.74,1.12l2.79.71q4.08,1,4.08,5v.17Q40,25.3,33.52,25.3Z"/><path class="cls-1" d="M50.39.61h1.22a.6.6,0,0,1,.46.14.85.85,0,0,1,.12.54v.92a.85.85,0,0,1-.12.54.6.6,0,0,1-.46.14h-1a3,3,0,0,0-2.16.63,2.89,2.89,0,0,0-.63,2.09V7h3.09a.6.6,0,0,1,.46.14.85.85,0,0,1,.12.54v.89a.85.85,0,0,1-.12.54.6.6,0,0,1-.46.14H47.84V24.14a.68.68,0,0,1-.16.54.79.79,0,0,1-.56.14H45.87a.83.83,0,0,1-.57-.14.73.73,0,0,1-.15-.54V9.25H43a.6.6,0,0,1-.46-.14.85.85,0,0,1-.12-.54V7.68a.85.85,0,0,1,.12-.54A.6.6,0,0,1,43,7h2.17V5.47a4.65,4.65,0,0,1,1.36-3.58A5.47,5.47,0,0,1,50.39.61Z"/><path class="cls-1" d="M57.39,7.68v2.59a5.44,5.44,0,0,1,2-2.36A5,5,0,0,1,62.29,7h.44c.25,0,.41,0,.47.14a.94.94,0,0,1,.11.54V8.91a.94.94,0,0,1-.11.54c-.06.09-.22.14-.47.14h-.89a3.72,3.72,0,0,0-3.19,1.68,7,7,0,0,0-1.19,4.2v8.67a.73.73,0,0,1-.15.54.83.83,0,0,1-.57.14H55.49a.79.79,0,0,1-.56-.14.68.68,0,0,1-.16-.54V7.68a.68.68,0,0,1,.16-.54A.84.84,0,0,1,55.49,7h1.19a.86.86,0,0,1,.56.14A.73.73,0,0,1,57.39,7.68Z"/><path class="cls-1" d="M76.57,24.14V23A6,6,0,0,1,71.5,25.3a5.55,5.55,0,0,1-4.21-1.53,6.2,6.2,0,0,1-1.47-4.46V7.68A.68.68,0,0,1,66,7.14.86.86,0,0,1,66.54,7h1.25a.89.89,0,0,1,.57.14.73.73,0,0,1,.15.54V18.73a4.66,4.66,0,0,0,.9,3.18,3.59,3.59,0,0,0,2.8,1,4,4,0,0,0,3.12-1.31,5.06,5.06,0,0,0,1.17-3.49V7.68a.73.73,0,0,1,.15-.54A.86.86,0,0,1,77.21,7h1.26a.86.86,0,0,1,.56.14.72.72,0,0,1,.16.54V24.14a.72.72,0,0,1-.16.54.8.8,0,0,1-.56.14H77.28a.8.8,0,0,1-.56-.14A.73.73,0,0,1,76.57,24.14Z"/><path class="cls-1" d="M91.29,24.82H89.45a4.52,4.52,0,0,1-3.35-1.09A4.75,4.75,0,0,1,85,20.3v-11H82.82a.62.62,0,0,1-.46-.14.85.85,0,0,1-.12-.54V7.68a.85.85,0,0,1,.12-.54A.62.62,0,0,1,82.82,7H85V2.69a.69.69,0,0,1,.16-.55A.85.85,0,0,1,85.75,2H87a.9.9,0,0,1,.57.13.74.74,0,0,1,.15.55V7h3.5a.61.61,0,0,1,.48.14,1.06,1.06,0,0,1,.1.54v.89a1.06,1.06,0,0,1-.1.54.61.61,0,0,1-.48.14h-3.5V19.86a3.31,3.31,0,0,0,.46,2,1.75,1.75,0,0,0,1.51.61h1.6c.25,0,.41,0,.47.14a.94.94,0,0,1,.11.54v1a.94.94,0,0,1-.11.54C91.7,24.78,91.54,24.82,91.29,24.82Z"/><path class="cls-1" d="M101.76,13.94c.43,0,1,0,1.72.07s1.42.11,2.12.2v-2a3.67,3.67,0,0,0-.86-2.71,4,4,0,0,0-2.84-.83,5.18,5.18,0,0,0-2.45.46,2.88,2.88,0,0,0-1.29,1.58,2,2,0,0,1-.28.48.83.83,0,0,1-.51.1H96.15a.92.92,0,0,1-.59-.14.64.64,0,0,1-.16-.51,2.5,2.5,0,0,1,.27-1,5.25,5.25,0,0,1,.68-1A5.5,5.5,0,0,1,98.56,7a9.42,9.42,0,0,1,3.34-.51c2.26,0,3.89.43,4.89,1.31s1.5,2.3,1.5,4.3v7a6.05,6.05,0,0,1-1.55,4.55q-1.55,1.5-4.88,1.5h-.51a8.29,8.29,0,0,1-5.1-1.29,4.88,4.88,0,0,1-1.66-4.12,5.31,5.31,0,0,1,1.75-4.42C97.5,14.41,99.31,13.94,101.76,13.94Zm.2,2.24a6,6,0,0,0-3.62.82,3.3,3.3,0,0,0-1,2.72,2.88,2.88,0,0,0,1,2.41,5.41,5.41,0,0,0,3.27.75h.3a3.69,3.69,0,0,0,2.86-1,4.51,4.51,0,0,0,.88-3.11V16.49c-.68-.09-1.35-.16-2-.22S102.37,16.18,102,16.18Z"/><path class="cls-1" d="M126,13.94c.43,0,1,0,1.71.07s1.42.11,2.13.2v-2A3.63,3.63,0,0,0,129,9.5a4,4,0,0,0-2.84-.83,5.23,5.23,0,0,0-2.45.46,3,3,0,0,0-1.29,1.58,1.8,1.8,0,0,1-.27.48.88.88,0,0,1-.51.1h-1.22a.94.94,0,0,1-.6-.14.67.67,0,0,1-.15-.51,2.5,2.5,0,0,1,.27-1,4.84,4.84,0,0,1,.68-1A5.5,5.5,0,0,1,122.84,7a9.33,9.33,0,0,1,3.33-.51c2.27,0,3.9.43,4.9,1.31s1.49,2.3,1.49,4.3v7A6,6,0,0,1,131,23.66c-1,1-2.66,1.5-4.88,1.5h-.51a8.29,8.29,0,0,1-5.1-1.29,4.88,4.88,0,0,1-1.67-4.12,5.31,5.31,0,0,1,1.75-4.42C121.78,14.41,123.59,13.94,126,13.94Zm.2,2.24a5.94,5.94,0,0,0-3.62.82,3.3,3.3,0,0,0-1,2.72,2.85,2.85,0,0,0,.95,2.41,5.37,5.37,0,0,0,3.26.75h.31a3.68,3.68,0,0,0,2.85-1,4.51,4.51,0,0,0,.89-3.11V16.49c-.68-.09-1.36-.16-2-.22S126.65,16.18,126.24,16.18Z"/><path class="cls-1" d="M146.67,1.29V24.14a.73.73,0,0,1-.15.54.8.8,0,0,1-.56.14H144.7a.8.8,0,0,1-.56-.14.73.73,0,0,1-.15-.54V1.29a.73.73,0,0,1,.15-.54.86.86,0,0,1,.56-.14H146a.86.86,0,0,1,.56.14A.73.73,0,0,1,146.67,1.29Z"/><path class="cls-1" d="M158,25.3a7.29,7.29,0,0,1-5.42-1.94,7.45,7.45,0,0,1-1.92-5.48v-3.6a8,8,0,0,1,1.92-5.71,7.07,7.07,0,0,1,5.42-2,7.26,7.26,0,0,1,5.42,1.94,7.43,7.43,0,0,1,1.92,5.47v3.6a8,8,0,0,1-1.92,5.72A7.09,7.09,0,0,1,158,25.3ZM158,23c3.1,0,4.66-1.88,4.66-5.64V14.48c0-3.76-1.56-5.64-4.66-5.64s-4.66,1.88-4.66,5.64v2.86Q153.37,23,158,23Z"/><path class="cls-1" d="M175.13,25.3q-3.7,0-5.47-1.67a4,4,0,0,1-1.33-3,.67.67,0,0,1,.15-.51,1,1,0,0,1,.6-.14h1a1.21,1.21,0,0,1,.56.1.76.76,0,0,1,.22.48,2.91,2.91,0,0,0,1.31,2,5.57,5.57,0,0,0,2.9.61c2.59,0,3.88-.91,3.88-2.75a2.79,2.79,0,0,0-.71-2,5.22,5.22,0,0,0-2.38-1.18l-3-.78q-4.08-1.08-4.08-4.62v-.17a4.48,4.48,0,0,1,1.72-3.72,7.19,7.19,0,0,1,4.64-1.38c2.38,0,4.1.56,5.17,1.7a4,4,0,0,1,1.22,2.89.67.67,0,0,1-.15.51,1,1,0,0,1-.6.13h-1a1.17,1.17,0,0,1-.6-.1.65.65,0,0,1-.19-.47q-.41-2.55-4.11-2.55a4.21,4.21,0,0,0-2.64.74,2.57,2.57,0,0,0-.93,2.11,2.14,2.14,0,0,0,.73,1.74,7.53,7.53,0,0,0,2.74,1.12l2.79.71q4.08,1,4.08,5v.17Q181.63,25.3,175.13,25.3Z"/><path class="cls-1" d="M192.16,18.22V1.29a.72.72,0,0,1,.16-.54.86.86,0,0,1,.56-.14h1.26a.86.86,0,0,1,.56.14.73.73,0,0,1,.15.54V8.64a6.06,6.06,0,0,1,5-2.11A6.73,6.73,0,0,1,205,8.45a7.73,7.73,0,0,1,1.8,5.49v3.77a7.74,7.74,0,0,1-1.92,5.6,7.17,7.17,0,0,1-5.39,2,7.46,7.46,0,0,1-5.42-1.86A6.87,6.87,0,0,1,192.16,18.22Zm2.69-3.74v2.86q0,5.64,4.66,5.64t4.62-5.64V14.48q0-5.64-4.66-5.64A4.19,4.19,0,0,0,196,10.29,6.52,6.52,0,0,0,194.85,14.48Z"/><path class="cls-1" d="M223.61,16.73H212.84v.64c0,3.74,1.51,5.61,4.55,5.61,1.93,0,3.21-.73,3.84-2.21a1.23,1.23,0,0,1,.31-.49.94.94,0,0,1,.48-.08h1.22a1.14,1.14,0,0,1,.61.1.53.53,0,0,1,.14.44,2.87,2.87,0,0,1-.38,1.22,6.22,6.22,0,0,1-.85,1.3,5.61,5.61,0,0,1-2.31,1.49,9,9,0,0,1-3.16.55,6.84,6.84,0,0,1-5.29-2,8.14,8.14,0,0,1-1.85-5.71V15A9.55,9.55,0,0,1,212,8.74a6.54,6.54,0,0,1,5.32-2.21q7,0,7,7.78v1.74a.73.73,0,0,1-.15.54A.89.89,0,0,1,223.61,16.73Zm-6.29-8.09q-4.45,0-4.48,5.88h8.77a7.52,7.52,0,0,0-1.06-4.46A3.75,3.75,0,0,0,217.32,8.64Z"/><path class="cls-1" d="M227.93,18.22V1.29a.73.73,0,0,1,.15-.54.89.89,0,0,1,.57-.14h1.25a.84.84,0,0,1,.56.14.68.68,0,0,1,.16.54V8.64a6.06,6.06,0,0,1,5-2.11,6.69,6.69,0,0,1,5.13,1.92,7.73,7.73,0,0,1,1.81,5.49v3.77a7.7,7.7,0,0,1-1.93,5.6,7.15,7.15,0,0,1-5.38,2,7.48,7.48,0,0,1-5.43-1.86A6.9,6.9,0,0,1,227.93,18.22Zm2.69-3.74v2.86q0,5.64,4.66,5.64t4.62-5.64V14.48q0-5.64-4.66-5.64a4.16,4.16,0,0,0-3.45,1.45A6.52,6.52,0,0,0,230.62,14.48Z"/><path class="cls-1" d="M259.38,16.73H248.6v.64q0,5.61,4.56,5.61c1.93,0,3.21-.73,3.84-2.21a1.13,1.13,0,0,1,.31-.49.92.92,0,0,1,.47-.08H259a1.16,1.16,0,0,1,.61.1c.09.07.13.21.13.44a2.84,2.84,0,0,1-.37,1.22,6.22,6.22,0,0,1-.85,1.3,5.74,5.74,0,0,1-2.31,1.49,9.08,9.08,0,0,1-3.16.55,6.84,6.84,0,0,1-5.29-2,8.09,8.09,0,0,1-1.85-5.71V15a9.5,9.5,0,0,1,1.85-6.29,6.54,6.54,0,0,1,5.32-2.21q7,0,7,7.78v1.74a.72.72,0,0,1-.16.54A.86.86,0,0,1,259.38,16.73Zm-6.29-8.09c-3,0-4.46,2-4.49,5.88h8.77a7.6,7.6,0,0,0-1.05-4.46A3.75,3.75,0,0,0,253.09,8.64ZM254.82,0h1.5c.29,0,.44.09.44.27a.85.85,0,0,1-.13.38L254.21,4a2.62,2.62,0,0,1-.54.65,1.18,1.18,0,0,1-.58.1h-1.15q-.45,0-.45-.27a.89.89,0,0,1,.14-.38L253.7.75a2.08,2.08,0,0,1,.5-.63A1.18,1.18,0,0,1,254.82,0Z"/><path class="cls-1" d="M269.78,25.3q-3.7,0-5.47-1.67a4,4,0,0,1-1.33-3,.67.67,0,0,1,.16-.51.92.92,0,0,1,.59-.14h1a1.18,1.18,0,0,1,.56.1.76.76,0,0,1,.22.48,2.91,2.91,0,0,0,1.31,2,5.63,5.63,0,0,0,2.91.61c2.58,0,3.87-.91,3.87-2.75a2.79,2.79,0,0,0-.71-2,5.22,5.22,0,0,0-2.38-1.18l-3-.78q-4.08-1.08-4.08-4.62v-.17a4.48,4.48,0,0,1,1.72-3.72,7.19,7.19,0,0,1,4.64-1.38c2.38,0,4.1.56,5.17,1.7a4,4,0,0,1,1.22,2.89.67.67,0,0,1-.15.51.93.93,0,0,1-.59.13h-1a1.19,1.19,0,0,1-.6-.1.61.61,0,0,1-.18-.47q-.42-2.55-4.12-2.55a4.16,4.16,0,0,0-2.63.74,2.54,2.54,0,0,0-.94,2.11,2.17,2.17,0,0,0,.73,1.74,7.53,7.53,0,0,0,2.74,1.12l2.79.71q4.08,1,4.08,5v.17Q276.28,25.3,269.78,25.3Z"/><path class="cls-1" d="M294.57,24.82h-1.84a4.49,4.49,0,0,1-3.34-1.09,4.7,4.7,0,0,1-1.08-3.43v-11H286.1a.57.57,0,0,1-.45-.14.79.79,0,0,1-.12-.54V7.68a.79.79,0,0,1,.12-.54A.57.57,0,0,1,286.1,7h2.21V2.69a.69.69,0,0,1,.16-.55A.87.87,0,0,1,289,2h1.26a.89.89,0,0,1,.56.13.74.74,0,0,1,.15.55V7h3.5a.61.61,0,0,1,.48.14,1,1,0,0,1,.1.54v.89a1,1,0,0,1-.1.54.61.61,0,0,1-.48.14H291V19.86a3.31,3.31,0,0,0,.46,2,1.75,1.75,0,0,0,1.51.61h1.6a.61.61,0,0,1,.48.14,1.06,1.06,0,0,1,.1.54v1a1.06,1.06,0,0,1-.1.54C295,24.78,294.82,24.82,294.57,24.82Z"/><path class="cls-1" d="M305,13.94c.43,0,1,0,1.72.07s1.42.11,2.12.2v-2A3.67,3.67,0,0,0,308,9.5a4,4,0,0,0-2.84-.83,5.21,5.21,0,0,0-2.45.46,2.88,2.88,0,0,0-1.29,1.58,2.64,2.64,0,0,1-.27.48.88.88,0,0,1-.51.1h-1.23a.92.92,0,0,1-.59-.14.64.64,0,0,1-.16-.51,2.38,2.38,0,0,1,.28-1,4.5,4.5,0,0,1,.68-1A5.43,5.43,0,0,1,301.85,7a9.33,9.33,0,0,1,3.33-.51c2.26,0,3.9.43,4.89,1.31s1.5,2.3,1.5,4.3v7A6.05,6.05,0,0,1,310,23.66q-1.54,1.5-4.88,1.5h-.51a8.29,8.29,0,0,1-5.1-1.29,4.88,4.88,0,0,1-1.66-4.12,5.31,5.31,0,0,1,1.75-4.42C300.79,14.41,302.59,13.94,305,13.94Zm.21,2.24a6,6,0,0,0-3.63.82,3.34,3.34,0,0,0-1,2.72,2.88,2.88,0,0,0,.95,2.41,5.43,5.43,0,0,0,3.27.75h.3a3.69,3.69,0,0,0,2.86-1,4.51,4.51,0,0,0,.88-3.11V16.49c-.68-.09-1.35-.16-2-.22S305.65,16.18,305.25,16.18Z"/><path class="cls-1" d="M318.61,1.29V24.14a.68.68,0,0,1-.16.54.8.8,0,0,1-.56.14h-1.26a.82.82,0,0,1-.56-.14.73.73,0,0,1-.15-.54V1.29a.73.73,0,0,1,.15-.54.88.88,0,0,1,.56-.14h1.26a.86.86,0,0,1,.56.14A.68.68,0,0,1,318.61,1.29Z"/><path class="cls-1" d="M336.73,23q3.47,0,4-2.92a.64.64,0,0,1,.18-.46,1.06,1.06,0,0,1,.6-.12h1.12a1,1,0,0,1,.6.14.67.67,0,0,1,.15.51,5,5,0,0,1-1,2.82c-1,1.56-2.94,2.35-5.71,2.35a6.78,6.78,0,0,1-5.18-1.89,7.76,7.76,0,0,1-1.79-5.53V14.52q0-3.94,1.79-6a6.53,6.53,0,0,1,5.18-2q3.7,0,5.37,1.87a4.84,4.84,0,0,1,1.29,3.3.67.67,0,0,1-.15.51.93.93,0,0,1-.59.13h-1.09a1.06,1.06,0,0,1-.6-.12.64.64,0,0,1-.18-.46,3.08,3.08,0,0,0-1.19-2.19,4.43,4.43,0,0,0-2.72-.76,4,4,0,0,0-3.37,1.36,7.06,7.06,0,0,0-1.05,4.31v2.86a7,7,0,0,0,1.05,4.28A3.9,3.9,0,0,0,336.73,23Z"/><path class="cls-1" d="M353.86,25.3a7.3,7.3,0,0,1-5.42-1.94,7.45,7.45,0,0,1-1.92-5.48v-3.6a8,8,0,0,1,1.92-5.71,7.09,7.09,0,0,1,5.42-2,7.27,7.27,0,0,1,5.43,1.94,7.43,7.43,0,0,1,1.92,5.47v3.6a8,8,0,0,1-1.92,5.72A7.1,7.1,0,0,1,353.86,25.3Zm0-2.32q4.67,0,4.66-5.64V14.48q0-5.64-4.66-5.64t-4.65,5.64v2.86Q349.21,23,353.86,23Z"/><path class="cls-1" d="M383.55,6.53a5.52,5.52,0,0,1,4.18,1.53,6.21,6.21,0,0,1,1.46,4.45V24.14a.73.73,0,0,1-.15.54.8.8,0,0,1-.56.14h-1.26a.8.8,0,0,1-.56-.14.72.72,0,0,1-.16-.54v-11a4.74,4.74,0,0,0-.88-3.18,3.53,3.53,0,0,0-2.79-1,4,4,0,0,0-3.11,1.29,5,5,0,0,0-1.17,3.5V24.14a.73.73,0,0,1-.15.54.83.83,0,0,1-.57.14h-1.25a.79.79,0,0,1-.56-.14.68.68,0,0,1-.16-.54v-11A4.74,4.74,0,0,0,375,9.91a3.53,3.53,0,0,0-2.79-1,4,4,0,0,0-3.11,1.29,5,5,0,0,0-1.17,3.5V24.14a.68.68,0,0,1-.16.54.8.8,0,0,1-.56.14h-1.26a.82.82,0,0,1-.56-.14.73.73,0,0,1-.15-.54V7.68a.73.73,0,0,1,.15-.54.88.88,0,0,1,.56-.14h1.19a.89.89,0,0,1,.57.14.73.73,0,0,1,.15.54V8.87a5.85,5.85,0,0,1,5.06-2.34q3.71,0,5,2.79a6.31,6.31,0,0,1,2.38-2.15A7.32,7.32,0,0,1,383.55,6.53Z"/><path class="cls-1" d="M400.38,25.3A7.31,7.31,0,0,1,395,23.36,7.45,7.45,0,0,1,393,17.88v-3.6A8,8,0,0,1,395,8.57a7.1,7.1,0,0,1,5.43-2,7.26,7.26,0,0,1,5.42,1.94,7.43,7.43,0,0,1,1.92,5.47v3.6a8,8,0,0,1-1.92,5.72A7.09,7.09,0,0,1,400.38,25.3Zm0-2.32Q405,23,405,17.34V14.48q0-5.64-4.65-5.64t-4.66,5.64v2.86Q395.72,23,400.38,23Z"/><path class="cls-1" d="M424.55,25.3c-2.47,0-4.3-.56-5.47-1.67a4,4,0,0,1-1.33-3,.67.67,0,0,1,.15-.51,1,1,0,0,1,.6-.14h1a1.23,1.23,0,0,1,.57.1.76.76,0,0,1,.22.48,2.91,2.91,0,0,0,1.31,2,5.57,5.57,0,0,0,2.9.61c2.59,0,3.88-.91,3.88-2.75a2.76,2.76,0,0,0-.72-2,5.17,5.17,0,0,0-2.38-1.18l-3-.78q-4.08-1.08-4.08-4.62v-.17a4.48,4.48,0,0,1,1.72-3.72,7.19,7.19,0,0,1,4.64-1.38c2.38,0,4.1.56,5.16,1.7a3.93,3.93,0,0,1,1.23,2.89.67.67,0,0,1-.15.51,1,1,0,0,1-.6.13h-1a1.15,1.15,0,0,1-.59-.1.61.61,0,0,1-.19-.47q-.4-2.55-4.11-2.55a4.21,4.21,0,0,0-2.64.74,2.57,2.57,0,0,0-.93,2.11,2.14,2.14,0,0,0,.73,1.74,7.53,7.53,0,0,0,2.74,1.12l2.78.71q4.08,1,4.08,5v.17Q431,25.3,424.55,25.3Z"/><path class="cls-1" d="M441.52,25.3a7.31,7.31,0,0,1-5.43-1.94,7.45,7.45,0,0,1-1.92-5.48v-3.6a8,8,0,0,1,1.92-5.71,7.1,7.1,0,0,1,5.43-2,7.26,7.26,0,0,1,5.42,1.94,7.43,7.43,0,0,1,1.92,5.47v3.6a8,8,0,0,1-1.92,5.72A7.09,7.09,0,0,1,441.52,25.3Zm0-2.32q4.65,0,4.65-5.64V14.48q0-5.64-4.65-5.64t-4.66,5.64v2.86Q436.86,23,441.52,23Z"/><path class="cls-1" d="M460.73,6.53a5.82,5.82,0,0,1,4.33,1.53,6.06,6.06,0,0,1,1.51,4.45V24.14a.73.73,0,0,1-.15.54.8.8,0,0,1-.56.14H464.6a.8.8,0,0,1-.56-.14.73.73,0,0,1-.15-.54v-11A4.53,4.53,0,0,0,463,9.91a3.83,3.83,0,0,0-2.94-1,4.19,4.19,0,0,0-3.23,1.31,4.91,4.91,0,0,0-1.22,3.48V24.14a.68.68,0,0,1-.16.54.79.79,0,0,1-.56.14h-1.25a.83.83,0,0,1-.57-.14.73.73,0,0,1-.15-.54V7.68a.73.73,0,0,1,.15-.54.89.89,0,0,1,.57-.14h1.19a.88.88,0,0,1,.56.14.73.73,0,0,1,.15.54V8.87A6.15,6.15,0,0,1,460.73,6.53Z"/></g></g></svg>