<svg xmlns="http://www.w3.org/2000/svg" viewBox="0 0 109.32 15.98"><defs><style>.cls-1{fill:#ffbf2f;}.cls-2{fill:#ffce5f;}.cls-3{fill:#efb031;}.cls-4{fill:#8a8a8b;}</style></defs><g id="Capa_2" data-name="Capa 2"><g id="Capa_2-2" data-name="Capa 2"><path class="cls-1" d="M70.28.65,72.42,5a.24.24,0,0,0,.18.13l4.8.7a.24.24,0,0,1,.13.41L74.06,9.61a.26.26,0,0,0-.07.22l.82,4.77a.24.24,0,0,1-.35.25L70.17,12.6a.22.22,0,0,0-.22,0l-4.29,2.25a.24.24,0,0,1-.35-.25l.82-4.77a.26.26,0,0,0-.07-.22L62.59,6.23a.24.24,0,0,1,.14-.41l4.79-.7A.23.23,0,0,0,67.7,5L69.84.65A.25.25,0,0,1,70.28.65Z" transform="translate(0 -0.45)"/><path class="cls-2" d="M70.06,1.65l-1.91,3.7a.64.64,0,0,1-.51.34l-4.14.38,4.38.21a.66.66,0,0,0,.63-.42Z" transform="translate(0 -0.45)"/><path class="cls-3" d="M65.41,14.05l-.1.55a.24.24,0,0,0,.35.25L70,12.6a.22.22,0,0,1,.22,0l4.29,2.25a.24.24,0,0,0,.35-.25L74,9.83a.26.26,0,0,1,.07-.22l3.47-3.38a.24.24,0,0,0-.13-.41l-1.61-.23A18.54,18.54,0,0,1,65.41,14.05Z" transform="translate(0 -0.45)"/><path class="cls-1" d="M54,.58l2.14,4.35a.26.26,0,0,0,.19.13l4.79.7a.24.24,0,0,1,.13.41L57.73,9.55a.26.26,0,0,0-.07.21l.82,4.77a.24.24,0,0,1-.35.26l-4.28-2.25a.24.24,0,0,0-.23,0l-4.29,2.25a.25.25,0,0,1-.35-.26l.82-4.77a.21.21,0,0,0-.07-.21L46.27,6.17a.24.24,0,0,1,.13-.41l4.79-.7a.23.23,0,0,0,.18-.13L53.52.58A.24.24,0,0,1,54,.58Z" transform="translate(0 -0.45)"/><path class="cls-2" d="M53.73,1.59l-1.91,3.7a.64.64,0,0,1-.51.34L47.17,6l4.38.2a.63.63,0,0,0,.63-.41Z" transform="translate(0 -0.45)"/><path class="cls-3" d="M49.08,14l-.1.54a.25.25,0,0,0,.35.26l4.29-2.25a.24.24,0,0,1,.23,0l4.28,2.25a.24.24,0,0,0,.35-.26l-.82-4.77a.26.26,0,0,1,.07-.21L61.2,6.17a.24.24,0,0,0-.13-.41l-1.61-.24A18.53,18.53,0,0,1,49.08,14Z" transform="translate(0 -0.45)"/><path class="cls-1" d="M38.68.75,40.83,5.1a.23.23,0,0,0,.18.13l4.79.69a.25.25,0,0,1,.14.42L42.47,9.72a.21.21,0,0,0-.07.21l.82,4.77a.25.25,0,0,1-.35.26l-4.29-2.25a.24.24,0,0,0-.23,0L34.07,15a.24.24,0,0,1-.35-.26l.82-4.77a.26.26,0,0,0-.07-.21L31,6.34a.25.25,0,0,1,.13-.42l4.8-.69a.26.26,0,0,0,.18-.13L38.25.75A.24.24,0,0,1,38.68.75Z" transform="translate(0 -0.45)"/><path class="cls-2" d="M38.47,1.76l-1.91,3.7a.64.64,0,0,1-.51.34l-4.15.38,4.38.2A.63.63,0,0,0,36.91,6Z" transform="translate(0 -0.45)"/><path class="cls-3" d="M33.81,14.15l-.09.55a.24.24,0,0,0,.35.26l4.28-2.25a.24.24,0,0,1,.23,0L42.87,15a.25.25,0,0,0,.35-.26L42.4,9.93a.21.21,0,0,1,.07-.21l3.47-3.38a.25.25,0,0,0-.14-.42l-1.6-.23A18.49,18.49,0,0,1,33.81,14.15Z" transform="translate(0 -0.45)"/><path class="cls-1" d="M23.22.75,25.36,5.1a.26.26,0,0,0,.19.13l4.79.69a.24.24,0,0,1,.13.42L27,9.72a.21.21,0,0,0-.07.21l.81,4.77a.24.24,0,0,1-.35.26l-4.28-2.25a.24.24,0,0,0-.23,0L18.61,15a.25.25,0,0,1-.36-.26l.82-4.77A.21.21,0,0,0,19,9.72L15.54,6.34a.24.24,0,0,1,.13-.42l4.79-.69a.23.23,0,0,0,.18-.13L22.79.75A.24.24,0,0,1,23.22.75Z" transform="translate(0 -0.45)"/><path class="cls-2" d="M23,1.76l-1.91,3.7a.64.64,0,0,1-.51.34l-4.14.38,4.38.2A.63.63,0,0,0,21.45,6Z" transform="translate(0 -0.45)"/><path class="cls-3" d="M18.35,14.15l-.1.55a.25.25,0,0,0,.36.26l4.28-2.25a.24.24,0,0,1,.23,0L27.4,15a.24.24,0,0,0,.35-.26l-.81-4.77A.21.21,0,0,1,27,9.72l3.46-3.38a.24.24,0,0,0-.13-.42l-1.61-.23A18.47,18.47,0,0,1,18.35,14.15Z" transform="translate(0 -0.45)"/><path class="cls-1" d="M7.76.75,9.9,5.1a.24.24,0,0,0,.18.13l4.8.69a.25.25,0,0,1,.13.42L11.54,9.72a.26.26,0,0,0-.07.21l.82,4.77a.24.24,0,0,1-.35.26L7.65,12.71a.22.22,0,0,0-.22,0L3.14,15a.25.25,0,0,1-.35-.26l.82-4.77a.23.23,0,0,0-.07-.21L.07,6.34a.25.25,0,0,1,.14-.42L5,5.23a.23.23,0,0,0,.18-.13L7.32.75A.25.25,0,0,1,7.76.75Z" transform="translate(0 -0.45)"/><path class="cls-2" d="M7.54,1.76,5.63,5.46a.64.64,0,0,1-.51.34L1,6.18l4.38.2A.64.64,0,0,0,6,6Z" transform="translate(0 -0.45)"/><path class="cls-3" d="M2.89,14.15l-.1.55a.25.25,0,0,0,.35.26l4.29-2.25a.22.22,0,0,1,.22,0L11.94,15a.24.24,0,0,0,.35-.26l-.82-4.77a.26.26,0,0,1,.07-.21L15,6.34a.25.25,0,0,0-.13-.42l-1.61-.23A18.5,18.5,0,0,1,2.89,14.15Z" transform="translate(0 -0.45)"/><path class="cls-4" d="M84.19,6.85A10.07,10.07,0,0,1,84.34,5a3.62,3.62,0,0,1,.48-1.27,2.67,2.67,0,0,1,.69-.77,3.19,3.19,0,0,1,.95-.5,2.22,2.22,0,0,1,.37-.09,1.45,1.45,0,0,1,.32,0,.31.31,0,0,1,.23.07.49.49,0,0,1,0,.25v.53a.45.45,0,0,1,0,.23.42.42,0,0,1-.23.09A1.74,1.74,0,0,0,86.1,4a4.12,4.12,0,0,0-.66,2.74V12a4.11,4.11,0,0,0,.66,2.73,1.69,1.69,0,0,0,1.05.56.25.25,0,0,1,.27.32v.53a.54.54,0,0,1,0,.26.32.32,0,0,1-.23.06l-.32,0a2.24,2.24,0,0,1-.37-.1,3.42,3.42,0,0,1-.95-.49,2.81,2.81,0,0,1-.69-.77,6,6,0,0,1-.63-3.15Z" transform="translate(0 -0.45)"/><path class="cls-4" d="M95.6,10.64a3.22,3.22,0,0,1-.9,2.41,3.37,3.37,0,0,1-2.46.87A3.58,3.58,0,0,1,89.47,13a2.42,2.42,0,0,1-.42-.71,2.06,2.06,0,0,1-.15-.76.26.26,0,0,1,.07-.22.48.48,0,0,1,.29-.06h.53a.41.41,0,0,1,.26.06.46.46,0,0,1,.09.25q.27,1.23,2,1.23c1.37,0,2.06-.73,2.06-2.19v-.37c0-1.58-.6-2.37-1.79-2.37a2.81,2.81,0,0,0-.91.14,3.57,3.57,0,0,0-.88.46.92.92,0,0,1-.53.14h-.59a.45.45,0,0,1-.27-.06.35.35,0,0,1-.07-.26V3.26A.33.33,0,0,1,89.27,3a.38.38,0,0,1,.27-.07H95a.38.38,0,0,1,.27.07.33.33,0,0,1,.07.25v.5a.35.35,0,0,1-.07.26.45.45,0,0,1-.27.06H90.34V7.54a4.15,4.15,0,0,1,2.3-.66q3,0,3,3.17Z" transform="translate(0 -0.45)"/><path class="cls-4" d="M100.88,13.92a3.23,3.23,0,0,1-3.33-2.07,3.18,3.18,0,0,1-.24-.92,12.07,12.07,0,0,1-.06-1.35V7.21a12.6,12.6,0,0,1,.06-1.37,3.8,3.8,0,0,1,.24-1,3.67,3.67,0,0,1,6.66,0,4.4,4.4,0,0,1,.24,1,12.07,12.07,0,0,1,.06,1.35V9.5a12.15,12.15,0,0,1-.06,1.36,4.55,4.55,0,0,1-.24,1A3.27,3.27,0,0,1,100.88,13.92Zm0-10.1a2,2,0,0,0-1.79.76A4.22,4.22,0,0,0,98.54,7V9.6a4.22,4.22,0,0,0,.55,2.46,2.51,2.51,0,0,0,3.58,0,4.31,4.31,0,0,0,.54-2.46V7a4.31,4.31,0,0,0-.54-2.46A2,2,0,0,0,100.88,3.82Z" transform="translate(0 -0.45)"/><path class="cls-4" d="M109.32,11.89A6,6,0,0,1,108.7,15a2.69,2.69,0,0,1-.7.77,3.42,3.42,0,0,1-1,.49,2,2,0,0,1-.37.1l-.31,0c-.12,0-.2,0-.23-.06a.51.51,0,0,1,0-.26v-.53a.4.4,0,0,1,0-.22.38.38,0,0,1,.23-.1,1.75,1.75,0,0,0,1-.56,4.11,4.11,0,0,0,.66-2.73V6.77A4.12,4.12,0,0,0,107.42,4a1.8,1.8,0,0,0-1-.56.38.38,0,0,1-.23-.09.44.44,0,0,1,0-.23V2.62a.47.47,0,0,1,0-.25.3.3,0,0,1,.23-.07,1.31,1.31,0,0,1,.31,0,2,2,0,0,1,.37.09,3.19,3.19,0,0,1,1,.5,2.57,2.57,0,0,1,.7.77A3.63,3.63,0,0,1,109.17,5a10.07,10.07,0,0,1,.15,1.88Z" transform="translate(0 -0.45)"/></g></g></svg>